<svg xmlns="http://www.w3.org/2000/svg" version="1.1" xmlns:xlink="http://www.w3.org/1999/xlink" width="512" height="512" x="0" y="0" viewBox="0 0 64 64" style="enable-background:new 0 0 512 512" xml:space="preserve" class=""><g><path d="M50 39a2.996 2.996 0 0 0-2-2.816v-8.369a2.996 2.996 0 0 0 2-2.816 6.994 6.994 0 0 0-4.223-6.427l-6.709-2.902A5.084 5.084 0 0 1 36 11V5a1 1 0 0 0-1-1h-6a1 1 0 0 0-1 1v6a5.086 5.086 0 0 1-3.068 4.67l-6.708 2.902A6.995 6.995 0 0 0 14 25c0 1.302.839 2.402 2 2.816v8.369c-1.161.414-2 1.514-2 2.816s.839 2.402 2 2.816v8.369a2.996 2.996 0 0 0-2 2.816c0 3.86 3.14 7 7 7h22c3.859 0 7-3.14 7-7a2.996 2.996 0 0 0-2-2.816v-8.369A2.998 2.998 0 0 0 50 39zM30 6h4v4h-4zM19.017 20.409l6.708-2.902a7.086 7.086 0 0 0 4.201-5.506h4.148a7.083 7.083 0 0 0 4.2 5.506l6.71 2.902A4.996 4.996 0 0 1 48 25c0 .551-.448 1-1 1H22a1 1 0 0 0 0 2h24v8H18v-8a1 1 0 0 0 0-2h-1c-.551 0-1-.449-1-1 0-1.998 1.184-3.8 3.017-4.591zM43 58H21c-2.757 0-5-2.243-5-5 0-.551.449-1 1-1h1a1 1 0 0 0 0-2v-8a1 1 0 0 0 0-2h-1c-.551 0-1-.449-1-1s.449-1 1-1h30a1.001 1.001 0 0 1 0 2H22a1 1 0 0 0 0 2h24v8H22.063a1 1 0 0 0 0 2H47c.552 0 1 .449 1 1 0 2.757-2.243 5-5 5z" fill="#000000" opacity="1" data-original="#000000"></path></g></svg>